<mxfile host="app.diagrams.net" modified="2025-09-02T00:00:00Z" agent="cfbfantasy-app" version="24.7.2" type="device"><diagram id="draft-mock" name="Draft (Mock)"><mxGraphModel dx="1392" dy="850" grid="1" gridSize="10" guides="1" tooltips="1" connect="1" arrows="1" fold="1" page="1" pageScale="1" pageWidth="1920" pageHeight="1080" math="0" shadow="0"><root><mxCell id="0"/><mxCell id="1" parent="0"/><mxCell id="queue" value="Queue / Timer" style="rounded=1;fillColor=#FEE2E2;strokeColor=#DC2626;fontColor=#7F1D1D;" vertex="1" parent="1"><mxGeometry x="80" y="80" width="220" height="70" as="geometry"/></mxCell><mxCell id="engine" value="Snake Engine (mock)" style="rounded=1;fillColor=#E0F2FE;strokeColor=#0284C7;fontColor=#0C4A6E;" vertex="1" parent="1"><mxGeometry x="340" y="80" width="260" height="70" as="geometry"/></mxCell><mxCell id="pool" value="Draft Pool (top 1000)" style="rounded=1;fillColor=#DCFCE7;strokeColor=#16A34A;fontColor=#14532D;" vertex="1" parent="1"><mxGeometry x="640" y="80" width="240" height="70" as="geometry"/></mxCell><mxCell id="realtime" value="Realtime Updates" style="rounded=1;fillColor=#EDE9FE;strokeColor=#7C3AED;fontColor=#4C1D95;" vertex="1" parent="1"><mxGeometry x="920" y="80" width="240" height="70" as="geometry"/></mxCell><mxCell id="ui" value="Draft UI (mock room)" style="rounded=1;fillColor=#FEF9C3;strokeColor=#D97706;fontColor=#92400E;" vertex="1" parent="1"><mxGeometry x="1220" y="80" width="260" height="70" as="geometry"/></mxCell><mxCell id="e1" style="endArrow=block;endFill=1;strokeColor=#94A3B8;" edge="1" source="queue" target="engine" parent="1"><mxGeometry relative="1" as="geometry"/></mxCell><mxCell id="e2" style="endArrow=block;endFill=1;strokeColor=#94A3B8;" edge="1" source="engine" target="pool" parent="1"><mxGeometry relative="1" as="geometry"/></mxCell><mxCell id="e3" style="endArrow=block;endFill=1;strokeColor=#94A3B8;" edge="1" source="pool" target="ui" parent="1"><mxGeometry relative="1" as="geometry"/></mxCell><mxCell id="e4" style="endArrow=block;endFill=1;strokeColor=#94A3B8;" edge="1" source="engine" target="realtime" parent="1"><mxGeometry relative="1" as="geometry"/></mxCell></root></mxGraphModel></diagram></mxfile>